<?xml version="1.0" standalone="no"?>
<!DOCTYPE svg PUBLIC "-//W3C//DTD SVG 20010904//EN"
 "http://www.w3.org/TR/2001/REC-SVG-20010904/DTD/svg10.dtd">
<svg version="1.0" xmlns="http://www.w3.org/2000/svg"
 width="300.000000pt" height="300.000000pt" viewBox="0 0 300.000000 300.000000"
 preserveAspectRatio="xMidYMid meet">

<g transform="translate(0.000000,300.000000) scale(0.100000,-0.100000)"
fill="#000000" stroke="none">
<path d="M950 2345 l0 -485 968 2 967 3 3 483 2 482 -85 0 -85 0 0 -400 0
-400 -800 0 -800 0 0 400 0 400 -85 0 -85 0 0 -485z"/>
<path d="M210 1580 l0 -485 242 243 243 242 -243 242 -242 243 0 -485z"/>
<path d="M1020 1580 l0 -80 160 0 160 0 0 80 0 80 -160 0 -160 0 0 -80z"/>
<path d="M1500 1580 l0 -80 160 0 160 0 0 80 0 80 -160 0 -160 0 0 -80z"/>
<path d="M1980 1580 l0 -80 165 0 165 0 0 80 0 80 -165 0 -165 0 0 -80z"/>
<path d="M2460 1580 l0 -80 165 0 165 0 0 80 0 80 -165 0 -165 0 0 -80z"/>
<path d="M950 745 l0 -565 85 0 85 0 0 480 0 480 800 0 800 0 0 -480 0 -480
85 0 85 0 -2 563 -3 562 -967 3 -968 2 0 -565z"/>
</g>
</svg>
